<mxfile host="app.diagrams.net" modified="2023-06-13T13:40:55.790Z" agent="Mozilla/5.0 (Windows NT 10.0; Win64; x64) AppleWebKit/537.36 (KHTML, like Gecko) Chrome/114.0.0.0 Safari/537.36" etag="OwAoPrKbqRGXkWmH8tEo" version="21.3.8" type="device">
  <diagram id="R2lEEEUBdFMjLlhIrx00" name="Page-1">
    <mxGraphModel dx="1257" dy="706" grid="1" gridSize="10" guides="1" tooltips="1" connect="1" arrows="1" fold="1" page="1" pageScale="1" pageWidth="850" pageHeight="1100" math="0" shadow="0" extFonts="Permanent Marker^https://fonts.googleapis.com/css?family=Permanent+Marker">
      <root>
        <mxCell id="0" />
        <mxCell id="1" parent="0" />
        <mxCell id="i0RDENtx-NALwXTm8ZnX-18" value="EMPLOYEE" style="rounded=1;arcSize=10;whiteSpace=wrap;html=1;align=center;fillColor=#dae8fc;strokeColor=#6c8ebf;" parent="1" vertex="1">
          <mxGeometry x="550" y="190" width="100" height="40" as="geometry" />
        </mxCell>
        <mxCell id="i0RDENtx-NALwXTm8ZnX-19" value="DEPARTMENT" style="rounded=1;arcSize=10;whiteSpace=wrap;html=1;align=center;fillColor=#dae8fc;strokeColor=#6c8ebf;" parent="1" vertex="1">
          <mxGeometry x="190" y="190" width="100" height="40" as="geometry" />
        </mxCell>
        <mxCell id="i0RDENtx-NALwXTm8ZnX-20" value="PROJECTS" style="rounded=1;arcSize=10;whiteSpace=wrap;html=1;align=center;fillColor=#dae8fc;strokeColor=#6c8ebf;" parent="1" vertex="1">
          <mxGeometry x="180" y="460" width="100" height="40" as="geometry" />
        </mxCell>
        <mxCell id="i0RDENtx-NALwXTm8ZnX-21" value="Socialsecurity number" style="ellipse;whiteSpace=wrap;html=1;align=center;fontStyle=4;fillColor=#fff2cc;strokeColor=#d6b656;" parent="1" vertex="1">
          <mxGeometry x="710" y="90" width="100" height="40" as="geometry" />
        </mxCell>
        <mxCell id="i0RDENtx-NALwXTm8ZnX-22" value="Sex" style="ellipse;whiteSpace=wrap;html=1;align=center;fillColor=#ffe6cc;strokeColor=#d79b00;" parent="1" vertex="1">
          <mxGeometry x="730" y="150" width="100" height="40" as="geometry" />
        </mxCell>
        <mxCell id="i0RDENtx-NALwXTm8ZnX-23" value="Birthday" style="ellipse;whiteSpace=wrap;html=1;align=center;fillColor=#ffe6cc;strokeColor=#d79b00;" parent="1" vertex="1">
          <mxGeometry x="710" y="210" width="100" height="40" as="geometry" />
        </mxCell>
        <mxCell id="i0RDENtx-NALwXTm8ZnX-25" value="Address" style="ellipse;whiteSpace=wrap;html=1;align=center;fillColor=#ffe6cc;strokeColor=#d79b00;" parent="1" vertex="1">
          <mxGeometry x="550" y="70" width="100" height="40" as="geometry" />
        </mxCell>
        <mxCell id="i0RDENtx-NALwXTm8ZnX-26" value="Salary" style="ellipse;whiteSpace=wrap;html=1;align=center;fillColor=#ffe6cc;strokeColor=#d79b00;" parent="1" vertex="1">
          <mxGeometry x="425" y="140" width="100" height="40" as="geometry" />
        </mxCell>
        <mxCell id="i0RDENtx-NALwXTm8ZnX-27" value="Name" style="ellipse;whiteSpace=wrap;html=1;align=center;fillColor=#ffe6cc;strokeColor=#d79b00;" parent="1" vertex="1">
          <mxGeometry x="620" y="560" width="100" height="40" as="geometry" />
        </mxCell>
        <mxCell id="i0RDENtx-NALwXTm8ZnX-28" value="Sex" style="ellipse;whiteSpace=wrap;html=1;align=center;fillColor=#ffe6cc;strokeColor=#d79b00;" parent="1" vertex="1">
          <mxGeometry x="690" y="500" width="100" height="40" as="geometry" />
        </mxCell>
        <mxCell id="i0RDENtx-NALwXTm8ZnX-29" value="Birthdate" style="ellipse;whiteSpace=wrap;html=1;align=center;fillColor=#ffe6cc;strokeColor=#d79b00;" parent="1" vertex="1">
          <mxGeometry x="680" y="420" width="100" height="40" as="geometry" />
        </mxCell>
        <mxCell id="i0RDENtx-NALwXTm8ZnX-30" value="Relationship to the employee" style="ellipse;whiteSpace=wrap;html=1;align=center;fillColor=#ffe6cc;strokeColor=#d79b00;" parent="1" vertex="1">
          <mxGeometry x="490" y="560" width="100" height="40" as="geometry" />
        </mxCell>
        <mxCell id="i0RDENtx-NALwXTm8ZnX-31" value="Number" style="ellipse;whiteSpace=wrap;html=1;align=center;fontStyle=4;fillColor=#fff2cc;strokeColor=#d6b656;" parent="1" vertex="1">
          <mxGeometry x="10" y="470" width="100" height="40" as="geometry" />
        </mxCell>
        <mxCell id="i0RDENtx-NALwXTm8ZnX-32" value="Location" style="ellipse;whiteSpace=wrap;html=1;align=center;fillColor=#ffe6cc;strokeColor=#d79b00;" parent="1" vertex="1">
          <mxGeometry x="50" y="540" width="100" height="40" as="geometry" />
        </mxCell>
        <mxCell id="i0RDENtx-NALwXTm8ZnX-33" value="Name" style="ellipse;whiteSpace=wrap;html=1;align=center;fillColor=#ffe6cc;strokeColor=#d79b00;" parent="1" vertex="1">
          <mxGeometry x="180" y="580" width="100" height="40" as="geometry" />
        </mxCell>
        <mxCell id="i0RDENtx-NALwXTm8ZnX-34" value="Number" style="ellipse;whiteSpace=wrap;html=1;align=center;fontStyle=4;fillColor=#fff2cc;strokeColor=#d6b656;" parent="1" vertex="1">
          <mxGeometry x="40" y="170" width="100" height="40" as="geometry" />
        </mxCell>
        <mxCell id="i0RDENtx-NALwXTm8ZnX-35" value="Name" style="ellipse;whiteSpace=wrap;html=1;align=center;fillColor=#ffe6cc;strokeColor=#d79b00;" parent="1" vertex="1">
          <mxGeometry x="60" y="80" width="100" height="40" as="geometry" />
        </mxCell>
        <mxCell id="i0RDENtx-NALwXTm8ZnX-36" value="is_managed" style="shape=rhombus;perimeter=rhombusPerimeter;whiteSpace=wrap;html=1;align=center;fillColor=#d5e8d4;strokeColor=#82b366;" parent="1" vertex="1">
          <mxGeometry x="340" y="180" width="120" height="60" as="geometry" />
        </mxCell>
        <mxCell id="i0RDENtx-NALwXTm8ZnX-37" value="has" style="shape=rhombus;perimeter=rhombusPerimeter;whiteSpace=wrap;html=1;align=center;fillColor=#d5e8d4;strokeColor=#82b366;" parent="1" vertex="1">
          <mxGeometry x="340" y="250" width="120" height="60" as="geometry" />
        </mxCell>
        <mxCell id="i0RDENtx-NALwXTm8ZnX-50" value="DEPENDENT" style="shape=ext;margin=3;double=1;whiteSpace=wrap;html=1;align=center;fillColor=#e1d5e7;strokeColor=#9673a6;" parent="1" vertex="1">
          <mxGeometry x="560" y="460" width="100" height="40" as="geometry" />
        </mxCell>
        <mxCell id="i0RDENtx-NALwXTm8ZnX-52" style="edgeStyle=none;shape=link;rounded=0;orthogonalLoop=1;jettySize=auto;html=1;exitX=0.5;exitY=1;exitDx=0;exitDy=0;" parent="1" source="i0RDENtx-NALwXTm8ZnX-61" target="i0RDENtx-NALwXTm8ZnX-50" edge="1">
          <mxGeometry relative="1" as="geometry">
            <mxPoint x="510.0000000000001" y="380" as="sourcePoint" />
          </mxGeometry>
        </mxCell>
        <mxCell id="i0RDENtx-NALwXTm8ZnX-55" value="controls" style="shape=rhombus;perimeter=rhombusPerimeter;whiteSpace=wrap;html=1;align=center;fillColor=#d5e8d4;strokeColor=#82b366;" parent="1" vertex="1">
          <mxGeometry x="170" y="320" width="120" height="60" as="geometry" />
        </mxCell>
        <mxCell id="i0RDENtx-NALwXTm8ZnX-58" value="Supervised&lt;br&gt;by" style="shape=rhombus;perimeter=rhombusPerimeter;whiteSpace=wrap;html=1;align=center;fillColor=#d5e8d4;strokeColor=#82b366;" parent="1" vertex="1">
          <mxGeometry x="540" width="120" height="60" as="geometry" />
        </mxCell>
        <mxCell id="i0RDENtx-NALwXTm8ZnX-61" value="has" style="shape=rhombus;double=1;perimeter=rhombusPerimeter;whiteSpace=wrap;html=1;align=center;fillColor=#f8cecc;strokeColor=#b85450;" parent="1" vertex="1">
          <mxGeometry x="550" y="330" width="120" height="60" as="geometry" />
        </mxCell>
        <mxCell id="i0RDENtx-NALwXTm8ZnX-69" value="works" style="shape=rhombus;perimeter=rhombusPerimeter;whiteSpace=wrap;html=1;align=center;fillColor=#d5e8d4;strokeColor=#82b366;" parent="1" vertex="1">
          <mxGeometry x="365" y="400" width="120" height="60" as="geometry" />
        </mxCell>
        <mxCell id="i0RDENtx-NALwXTm8ZnX-76" value="Manager&lt;br&gt;Start_Date" style="ellipse;whiteSpace=wrap;html=1;align=center;fillColor=#ffe6cc;strokeColor=#d79b00;" parent="1" vertex="1">
          <mxGeometry x="350" y="90" width="100" height="40" as="geometry" />
        </mxCell>
        <mxCell id="i0RDENtx-NALwXTm8ZnX-78" value="Number_of&lt;br&gt;Hours_per_week" style="ellipse;whiteSpace=wrap;html=1;align=center;fillColor=#ffe6cc;strokeColor=#d79b00;" parent="1" vertex="1">
          <mxGeometry x="375" y="510" width="100" height="40" as="geometry" />
        </mxCell>
        <mxCell id="i0RDENtx-NALwXTm8ZnX-93" value="" style="endArrow=none;html=1;rounded=0;entryX=1;entryY=0.5;entryDx=0;entryDy=0;exitX=0.42;exitY=1.05;exitDx=0;exitDy=0;exitPerimeter=0;" parent="1" source="i0RDENtx-NALwXTm8ZnX-18" target="i0RDENtx-NALwXTm8ZnX-69" edge="1">
          <mxGeometry relative="1" as="geometry">
            <mxPoint x="300" y="370" as="sourcePoint" />
            <mxPoint x="460" y="370" as="targetPoint" />
            <Array as="points">
              <mxPoint x="590" y="320" />
              <mxPoint x="485" y="320" />
            </Array>
          </mxGeometry>
        </mxCell>
        <mxCell id="i0RDENtx-NALwXTm8ZnX-100" value="" style="endArrow=none;html=1;rounded=0;exitX=0.75;exitY=1;exitDx=0;exitDy=0;entryX=0;entryY=0.5;entryDx=0;entryDy=0;" parent="1" source="i0RDENtx-NALwXTm8ZnX-19" target="i0RDENtx-NALwXTm8ZnX-37" edge="1">
          <mxGeometry relative="1" as="geometry">
            <mxPoint x="250" y="260" as="sourcePoint" />
            <mxPoint x="410" y="260" as="targetPoint" />
            <Array as="points">
              <mxPoint x="265" y="280" />
            </Array>
          </mxGeometry>
        </mxCell>
        <mxCell id="i0RDENtx-NALwXTm8ZnX-101" value="" style="endArrow=none;html=1;rounded=0;entryX=0.1;entryY=1;entryDx=0;entryDy=0;entryPerimeter=0;exitX=1;exitY=0.5;exitDx=0;exitDy=0;" parent="1" source="i0RDENtx-NALwXTm8ZnX-37" target="i0RDENtx-NALwXTm8ZnX-18" edge="1">
          <mxGeometry relative="1" as="geometry">
            <mxPoint x="220" y="370" as="sourcePoint" />
            <mxPoint x="380" y="370" as="targetPoint" />
            <Array as="points">
              <mxPoint x="560" y="280" />
            </Array>
          </mxGeometry>
        </mxCell>
        <mxCell id="i0RDENtx-NALwXTm8ZnX-102" value="" style="endArrow=none;html=1;rounded=0;entryX=0;entryY=0.5;entryDx=0;entryDy=0;" parent="1" target="i0RDENtx-NALwXTm8ZnX-18" edge="1">
          <mxGeometry relative="1" as="geometry">
            <mxPoint x="460" y="210" as="sourcePoint" />
            <mxPoint x="530" y="210" as="targetPoint" />
          </mxGeometry>
        </mxCell>
        <mxCell id="i0RDENtx-NALwXTm8ZnX-103" value="" style="endArrow=none;html=1;rounded=0;entryX=0;entryY=0.5;entryDx=0;entryDy=0;exitX=1;exitY=0.5;exitDx=0;exitDy=0;" parent="1" source="i0RDENtx-NALwXTm8ZnX-19" target="i0RDENtx-NALwXTm8ZnX-36" edge="1">
          <mxGeometry relative="1" as="geometry">
            <mxPoint x="220" y="370" as="sourcePoint" />
            <mxPoint x="380" y="370" as="targetPoint" />
          </mxGeometry>
        </mxCell>
        <mxCell id="i0RDENtx-NALwXTm8ZnX-104" value="" style="endArrow=none;html=1;rounded=0;entryX=0.25;entryY=0;entryDx=0;entryDy=0;exitX=0;exitY=0.5;exitDx=0;exitDy=0;" parent="1" source="i0RDENtx-NALwXTm8ZnX-58" target="i0RDENtx-NALwXTm8ZnX-18" edge="1">
          <mxGeometry relative="1" as="geometry">
            <mxPoint x="220" y="190" as="sourcePoint" />
            <mxPoint x="380" y="190" as="targetPoint" />
            <Array as="points">
              <mxPoint x="540" y="120" />
            </Array>
          </mxGeometry>
        </mxCell>
        <mxCell id="i0RDENtx-NALwXTm8ZnX-105" value="" style="endArrow=none;html=1;rounded=0;entryX=0.75;entryY=0;entryDx=0;entryDy=0;exitX=1;exitY=0.5;exitDx=0;exitDy=0;" parent="1" source="i0RDENtx-NALwXTm8ZnX-58" target="i0RDENtx-NALwXTm8ZnX-18" edge="1">
          <mxGeometry relative="1" as="geometry">
            <mxPoint x="550" y="40" as="sourcePoint" />
            <mxPoint x="585" y="200" as="targetPoint" />
            <Array as="points">
              <mxPoint x="660" y="120" />
            </Array>
          </mxGeometry>
        </mxCell>
        <mxCell id="i0RDENtx-NALwXTm8ZnX-106" value="" style="endArrow=none;html=1;rounded=0;entryX=0.603;entryY=1.075;entryDx=0;entryDy=0;exitX=0.5;exitY=0;exitDx=0;exitDy=0;entryPerimeter=0;" parent="1" source="i0RDENtx-NALwXTm8ZnX-61" target="i0RDENtx-NALwXTm8ZnX-18" edge="1">
          <mxGeometry relative="1" as="geometry">
            <mxPoint x="220" y="190" as="sourcePoint" />
            <mxPoint x="380" y="190" as="targetPoint" />
          </mxGeometry>
        </mxCell>
        <mxCell id="i0RDENtx-NALwXTm8ZnX-107" value="" style="endArrow=none;html=1;rounded=0;entryX=0;entryY=0.5;entryDx=0;entryDy=0;exitX=1;exitY=0.5;exitDx=0;exitDy=0;" parent="1" source="i0RDENtx-NALwXTm8ZnX-20" target="i0RDENtx-NALwXTm8ZnX-69" edge="1">
          <mxGeometry relative="1" as="geometry">
            <mxPoint x="220" y="350" as="sourcePoint" />
            <mxPoint x="380" y="350" as="targetPoint" />
            <Array as="points">
              <mxPoint x="365" y="480" />
            </Array>
          </mxGeometry>
        </mxCell>
        <mxCell id="CYSQR7Tr-uRq5y31rsKa-1" value="" style="endArrow=none;html=1;rounded=0;exitX=1;exitY=0.5;exitDx=0;exitDy=0;entryX=0;entryY=0.25;entryDx=0;entryDy=0;" edge="1" parent="1" source="i0RDENtx-NALwXTm8ZnX-34" target="i0RDENtx-NALwXTm8ZnX-19">
          <mxGeometry relative="1" as="geometry">
            <mxPoint x="210" y="260" as="sourcePoint" />
            <mxPoint x="370" y="260" as="targetPoint" />
          </mxGeometry>
        </mxCell>
        <mxCell id="CYSQR7Tr-uRq5y31rsKa-2" value="" style="endArrow=none;html=1;rounded=0;exitX=1;exitY=0.5;exitDx=0;exitDy=0;entryX=0.25;entryY=0;entryDx=0;entryDy=0;" edge="1" parent="1" source="i0RDENtx-NALwXTm8ZnX-35" target="i0RDENtx-NALwXTm8ZnX-19">
          <mxGeometry relative="1" as="geometry">
            <mxPoint x="150" y="200" as="sourcePoint" />
            <mxPoint x="190" y="180" as="targetPoint" />
          </mxGeometry>
        </mxCell>
        <mxCell id="CYSQR7Tr-uRq5y31rsKa-3" value="" style="endArrow=none;html=1;rounded=0;exitX=0.5;exitY=1;exitDx=0;exitDy=0;entryX=0.5;entryY=0;entryDx=0;entryDy=0;" edge="1" parent="1" source="i0RDENtx-NALwXTm8ZnX-76" target="i0RDENtx-NALwXTm8ZnX-36">
          <mxGeometry relative="1" as="geometry">
            <mxPoint x="375" y="150" as="sourcePoint" />
            <mxPoint x="425" y="160" as="targetPoint" />
          </mxGeometry>
        </mxCell>
        <mxCell id="CYSQR7Tr-uRq5y31rsKa-4" value="" style="endArrow=none;html=1;rounded=0;exitX=0.5;exitY=1;exitDx=0;exitDy=0;entryX=0.5;entryY=0;entryDx=0;entryDy=0;" edge="1" parent="1" source="i0RDENtx-NALwXTm8ZnX-25" target="i0RDENtx-NALwXTm8ZnX-18">
          <mxGeometry relative="1" as="geometry">
            <mxPoint x="580" y="130" as="sourcePoint" />
            <mxPoint x="580" y="180" as="targetPoint" />
          </mxGeometry>
        </mxCell>
        <mxCell id="CYSQR7Tr-uRq5y31rsKa-5" value="" style="endArrow=none;html=1;rounded=0;exitX=1;exitY=0.5;exitDx=0;exitDy=0;entryX=0;entryY=0;entryDx=0;entryDy=0;" edge="1" parent="1" source="i0RDENtx-NALwXTm8ZnX-26" target="i0RDENtx-NALwXTm8ZnX-18">
          <mxGeometry relative="1" as="geometry">
            <mxPoint x="520" y="190" as="sourcePoint" />
            <mxPoint x="520" y="240" as="targetPoint" />
          </mxGeometry>
        </mxCell>
        <mxCell id="CYSQR7Tr-uRq5y31rsKa-6" value="" style="endArrow=none;html=1;rounded=0;exitX=0;exitY=0.5;exitDx=0;exitDy=0;entryX=1;entryY=0;entryDx=0;entryDy=0;" edge="1" parent="1" source="i0RDENtx-NALwXTm8ZnX-21" target="i0RDENtx-NALwXTm8ZnX-18">
          <mxGeometry relative="1" as="geometry">
            <mxPoint x="659" y="135" as="sourcePoint" />
            <mxPoint x="659" y="185" as="targetPoint" />
          </mxGeometry>
        </mxCell>
        <mxCell id="CYSQR7Tr-uRq5y31rsKa-7" value="" style="endArrow=none;html=1;rounded=0;entryX=1;entryY=0.5;entryDx=0;entryDy=0;exitX=0;exitY=0.5;exitDx=0;exitDy=0;" edge="1" parent="1" source="i0RDENtx-NALwXTm8ZnX-22" target="i0RDENtx-NALwXTm8ZnX-18">
          <mxGeometry relative="1" as="geometry">
            <mxPoint x="669" y="230" as="sourcePoint" />
            <mxPoint x="669" y="280" as="targetPoint" />
          </mxGeometry>
        </mxCell>
        <mxCell id="CYSQR7Tr-uRq5y31rsKa-8" value="" style="endArrow=none;html=1;rounded=0;exitX=0;exitY=0.5;exitDx=0;exitDy=0;entryX=1;entryY=0.75;entryDx=0;entryDy=0;" edge="1" parent="1" source="i0RDENtx-NALwXTm8ZnX-23" target="i0RDENtx-NALwXTm8ZnX-18">
          <mxGeometry relative="1" as="geometry">
            <mxPoint x="679" y="240" as="sourcePoint" />
            <mxPoint x="679" y="290" as="targetPoint" />
          </mxGeometry>
        </mxCell>
        <mxCell id="CYSQR7Tr-uRq5y31rsKa-9" value="" style="endArrow=none;html=1;rounded=0;entryX=0;entryY=0.5;entryDx=0;entryDy=0;exitX=1;exitY=0.5;exitDx=0;exitDy=0;" edge="1" parent="1" source="i0RDENtx-NALwXTm8ZnX-31" target="i0RDENtx-NALwXTm8ZnX-20">
          <mxGeometry relative="1" as="geometry">
            <mxPoint x="70" y="410" as="sourcePoint" />
            <mxPoint x="160" y="410" as="targetPoint" />
          </mxGeometry>
        </mxCell>
        <mxCell id="CYSQR7Tr-uRq5y31rsKa-10" value="" style="endArrow=none;html=1;rounded=0;entryX=1;entryY=0;entryDx=0;entryDy=0;exitX=0.5;exitY=1;exitDx=0;exitDy=0;" edge="1" parent="1" source="i0RDENtx-NALwXTm8ZnX-20" target="i0RDENtx-NALwXTm8ZnX-33">
          <mxGeometry relative="1" as="geometry">
            <mxPoint x="275" y="550" as="sourcePoint" />
            <mxPoint x="365" y="550" as="targetPoint" />
          </mxGeometry>
        </mxCell>
        <mxCell id="CYSQR7Tr-uRq5y31rsKa-11" value="" style="endArrow=none;html=1;rounded=0;entryX=0;entryY=1;entryDx=0;entryDy=0;exitX=1;exitY=0.5;exitDx=0;exitDy=0;" edge="1" parent="1" source="i0RDENtx-NALwXTm8ZnX-32" target="i0RDENtx-NALwXTm8ZnX-20">
          <mxGeometry relative="1" as="geometry">
            <mxPoint x="140" y="529.29" as="sourcePoint" />
            <mxPoint x="230" y="529.29" as="targetPoint" />
          </mxGeometry>
        </mxCell>
        <mxCell id="CYSQR7Tr-uRq5y31rsKa-12" value="" style="endArrow=none;html=1;rounded=0;entryX=0;entryY=0.5;entryDx=0;entryDy=0;exitX=1;exitY=1;exitDx=0;exitDy=0;" edge="1" parent="1" source="i0RDENtx-NALwXTm8ZnX-50" target="i0RDENtx-NALwXTm8ZnX-28">
          <mxGeometry relative="1" as="geometry">
            <mxPoint x="700" y="470" as="sourcePoint" />
            <mxPoint x="715" y="556" as="targetPoint" />
          </mxGeometry>
        </mxCell>
        <mxCell id="CYSQR7Tr-uRq5y31rsKa-13" value="" style="endArrow=none;html=1;rounded=0;exitX=0.5;exitY=1;exitDx=0;exitDy=0;entryX=0.5;entryY=0;entryDx=0;entryDy=0;" edge="1" parent="1" source="i0RDENtx-NALwXTm8ZnX-50" target="i0RDENtx-NALwXTm8ZnX-27">
          <mxGeometry relative="1" as="geometry">
            <mxPoint x="592.5" y="514" as="sourcePoint" />
            <mxPoint x="610" y="560" as="targetPoint" />
          </mxGeometry>
        </mxCell>
        <mxCell id="CYSQR7Tr-uRq5y31rsKa-14" value="" style="endArrow=none;html=1;rounded=0;entryX=1;entryY=0;entryDx=0;entryDy=0;exitX=0.25;exitY=1;exitDx=0;exitDy=0;" edge="1" parent="1" source="i0RDENtx-NALwXTm8ZnX-50" target="i0RDENtx-NALwXTm8ZnX-30">
          <mxGeometry relative="1" as="geometry">
            <mxPoint x="520" y="507" as="sourcePoint" />
            <mxPoint x="535" y="593" as="targetPoint" />
          </mxGeometry>
        </mxCell>
        <mxCell id="CYSQR7Tr-uRq5y31rsKa-15" value="" style="endArrow=none;html=1;rounded=0;entryX=0.5;entryY=0;entryDx=0;entryDy=0;exitX=0.5;exitY=1;exitDx=0;exitDy=0;" edge="1" parent="1" source="i0RDENtx-NALwXTm8ZnX-69" target="i0RDENtx-NALwXTm8ZnX-78">
          <mxGeometry relative="1" as="geometry">
            <mxPoint x="417.5" y="460" as="sourcePoint" />
            <mxPoint x="432.5" y="546" as="targetPoint" />
          </mxGeometry>
        </mxCell>
        <mxCell id="CYSQR7Tr-uRq5y31rsKa-16" value="" style="endArrow=none;html=1;rounded=0;entryX=0;entryY=0.5;entryDx=0;entryDy=0;exitX=1;exitY=0;exitDx=0;exitDy=0;" edge="1" parent="1" source="i0RDENtx-NALwXTm8ZnX-50" target="i0RDENtx-NALwXTm8ZnX-29">
          <mxGeometry relative="1" as="geometry">
            <mxPoint x="665" y="384" as="sourcePoint" />
            <mxPoint x="680" y="470" as="targetPoint" />
          </mxGeometry>
        </mxCell>
        <mxCell id="CYSQR7Tr-uRq5y31rsKa-17" value="1" style="text;html=1;strokeColor=none;fillColor=none;align=center;verticalAlign=middle;whiteSpace=wrap;rounded=0;" vertex="1" parent="1">
          <mxGeometry x="270" y="180" width="60" height="30" as="geometry" />
        </mxCell>
        <mxCell id="CYSQR7Tr-uRq5y31rsKa-19" value="" style="endArrow=none;html=1;rounded=0;exitX=0.4;exitY=1;exitDx=0;exitDy=0;exitPerimeter=0;entryX=0.5;entryY=0;entryDx=0;entryDy=0;" edge="1" parent="1" source="i0RDENtx-NALwXTm8ZnX-19" target="i0RDENtx-NALwXTm8ZnX-55">
          <mxGeometry relative="1" as="geometry">
            <mxPoint x="200" y="260" as="sourcePoint" />
            <mxPoint x="360" y="260" as="targetPoint" />
          </mxGeometry>
        </mxCell>
        <mxCell id="CYSQR7Tr-uRq5y31rsKa-20" value="" style="endArrow=none;html=1;rounded=0;entryX=0.5;entryY=0;entryDx=0;entryDy=0;exitX=0.5;exitY=1;exitDx=0;exitDy=0;" edge="1" parent="1" source="i0RDENtx-NALwXTm8ZnX-55" target="i0RDENtx-NALwXTm8ZnX-20">
          <mxGeometry relative="1" as="geometry">
            <mxPoint x="230" y="380" as="sourcePoint" />
            <mxPoint x="229.29" y="450" as="targetPoint" />
          </mxGeometry>
        </mxCell>
        <mxCell id="CYSQR7Tr-uRq5y31rsKa-21" value="M" style="text;html=1;strokeColor=none;fillColor=none;align=center;verticalAlign=middle;whiteSpace=wrap;rounded=0;" vertex="1" parent="1">
          <mxGeometry x="520" y="220" width="60" height="30" as="geometry" />
        </mxCell>
        <mxCell id="CYSQR7Tr-uRq5y31rsKa-22" value="1" style="text;html=1;strokeColor=none;fillColor=none;align=center;verticalAlign=middle;whiteSpace=wrap;rounded=0;" vertex="1" parent="1">
          <mxGeometry x="250" y="230" width="60" height="30" as="geometry" />
        </mxCell>
        <mxCell id="CYSQR7Tr-uRq5y31rsKa-23" value="1" style="text;html=1;strokeColor=none;fillColor=none;align=center;verticalAlign=middle;whiteSpace=wrap;rounded=0;" vertex="1" parent="1">
          <mxGeometry x="510" y="180" width="60" height="30" as="geometry" />
        </mxCell>
        <mxCell id="CYSQR7Tr-uRq5y31rsKa-24" value="1" style="text;html=1;strokeColor=none;fillColor=none;align=center;verticalAlign=middle;whiteSpace=wrap;rounded=0;" vertex="1" parent="1">
          <mxGeometry x="610" y="160" width="60" height="30" as="geometry" />
        </mxCell>
        <mxCell id="CYSQR7Tr-uRq5y31rsKa-25" value="1" style="text;html=1;strokeColor=none;fillColor=none;align=center;verticalAlign=middle;whiteSpace=wrap;rounded=0;" vertex="1" parent="1">
          <mxGeometry x="550" y="160" width="60" height="30" as="geometry" />
        </mxCell>
        <mxCell id="CYSQR7Tr-uRq5y31rsKa-26" value="M" style="text;html=1;strokeColor=none;fillColor=none;align=center;verticalAlign=middle;whiteSpace=wrap;rounded=0;" vertex="1" parent="1">
          <mxGeometry x="590" y="430" width="60" height="30" as="geometry" />
        </mxCell>
        <mxCell id="CYSQR7Tr-uRq5y31rsKa-27" value="1" style="text;html=1;strokeColor=none;fillColor=none;align=center;verticalAlign=middle;whiteSpace=wrap;rounded=0;" vertex="1" parent="1">
          <mxGeometry x="590" y="230" width="60" height="30" as="geometry" />
        </mxCell>
        <mxCell id="CYSQR7Tr-uRq5y31rsKa-28" value="M" style="text;html=1;strokeColor=none;fillColor=none;align=center;verticalAlign=middle;whiteSpace=wrap;rounded=0;" vertex="1" parent="1">
          <mxGeometry x="260" y="475" width="60" height="30" as="geometry" />
        </mxCell>
        <mxCell id="CYSQR7Tr-uRq5y31rsKa-29" value="N" style="text;html=1;strokeColor=none;fillColor=none;align=center;verticalAlign=middle;whiteSpace=wrap;rounded=0;" vertex="1" parent="1">
          <mxGeometry x="550" y="230" width="60" height="30" as="geometry" />
        </mxCell>
        <mxCell id="CYSQR7Tr-uRq5y31rsKa-30" value="M" style="text;html=1;strokeColor=none;fillColor=none;align=center;verticalAlign=middle;whiteSpace=wrap;rounded=0;" vertex="1" parent="1">
          <mxGeometry x="190" y="430" width="60" height="30" as="geometry" />
        </mxCell>
        <mxCell id="CYSQR7Tr-uRq5y31rsKa-31" value="1" style="text;html=1;strokeColor=none;fillColor=none;align=center;verticalAlign=middle;whiteSpace=wrap;rounded=0;" vertex="1" parent="1">
          <mxGeometry x="190" y="230" width="60" height="30" as="geometry" />
        </mxCell>
      </root>
    </mxGraphModel>
  </diagram>
</mxfile>
